<svg xmlns="http://www.w3.org/2000/svg" width="291" height="73.927" viewBox="0 0 291 73.927"><g transform="translate(2129 513)"><g transform="translate(-2129 -513)"><g transform="translate(98.561 28.515)"><path d="M1243.71,358.7v3.936h6.736a1.363,1.363,0,0,1,1.354,1.352,1.348,1.348,0,0,1-1.354,1.353h-6.736v7.03h-3.146v-14.8a1.585,1.585,0,0,1,1.573-1.574h10.6v2.7Z" transform="translate(-1238.884 -355.753)" fill="#8d1914"/><rect width="3.146" height="16.372" transform="translate(16.926 0.25)" fill="#8d1914"/><path d="M1534.327,372.375l-3.616-6.172h-4.523v6.172h-3.146v-14.8a1.584,1.584,0,0,1,1.574-1.574h7.275a5.076,5.076,0,0,1,5.286,5.115,4.963,4.963,0,0,1-3.171,4.647l3.907,6.612ZM1531.3,358.7h-5.112v4.8h5.112a2.456,2.456,0,0,0,2.681-2.435,2.417,2.417,0,0,0-2.681-2.362" transform="translate(-1498.54 -355.753)" fill="#8d1914"/><path d="M1743.485,369.829a18.482,18.482,0,0,1-6.466-1.277l.589-2.434a19.511,19.511,0,0,0,5.925,1.057c2.312,0,3.467-.713,3.467-1.818,0-.985-1.277-1.574-4.672-3.123-3.22-1.449-4.794-2.656-4.794-5.016,0-2.95,1.99-4.281,6.442-4.281a25.062,25.062,0,0,1,5.828.813l-.473,2.532a28.979,28.979,0,0,0-5.307-.64c-2.532,0-3.345.419-3.345,1.425,0,1.058.813,1.477,4.328,3.1,3.538,1.627,5.138,2.413,5.138,4.945,0,3.049-2.775,4.72-6.661,4.72" transform="translate(-1695.229 -352.937)" fill="#8d1914"/><path d="M1924.845,358.754v13.62H1921.7v-13.62h-5.436V356h14.02v2.754Z" transform="translate(-1859.991 -355.753)" fill="#8d1914"/><path d="M2191.262,366.475h-5.186v5.9h-3.146v-14.8A1.583,1.583,0,0,1,2184.5,356h6.762a5.24,5.24,0,1,1,0,10.475m-.442-7.773h-4.744v5.066h4.744a2.545,2.545,0,0,0,2.654-2.555,2.494,2.494,0,0,0-2.654-2.511" transform="translate(-2105.113 -355.753)" fill="#8d1914"/><path d="M2384.746,372.4a1.583,1.583,0,0,1-1.575-1.573V357.6a1.581,1.581,0,0,1,1.575-1.572h10.177v2.7h-8.606v3.932h6.492a1.369,1.369,0,0,1,1.378,1.353,1.351,1.351,0,0,1-1.378,1.351h-6.492V369.7h8.632v2.7Z" transform="translate(-2289.176 -355.78)" fill="#8d1914"/><path d="M2565.65,369.871a8.444,8.444,0,1,1,8.382-8.432,8.193,8.193,0,0,1-8.382,8.432m0-14.086c-3.2,0-5.239,2.382-5.239,5.654s2.043,5.628,5.239,5.628,5.261-2.359,5.261-5.628-2.064-5.654-5.261-5.654" transform="translate(-2449.201 -352.979)" fill="#8d1914"/><path d="M2811.28,366.475H2806.1v5.9h-3.148v-14.8a1.583,1.583,0,0,1,1.573-1.574h6.759a5.24,5.24,0,1,1,0,10.475m-.442-7.773H2806.1v5.066h4.741a2.542,2.542,0,0,0,2.653-2.555,2.491,2.491,0,0,0-2.653-2.511" transform="translate(-2675.037 -355.753)" fill="#8d1914"/><path d="M3004.724,372.4a1.581,1.581,0,0,1-1.552-1.573v-14.8h3.15v13.647h8.654V372.4Z" transform="translate(-2859.084 -355.78)" fill="#8d1914"/><path d="M3182.847,372.4a1.585,1.585,0,0,1-1.576-1.573V357.6a1.583,1.583,0,0,1,1.576-1.572h10.174v2.7h-8.6v3.932h6.487a1.37,1.37,0,0,1,1.378,1.353,1.352,1.352,0,0,1-1.378,1.351h-6.487V369.7h8.629v2.7Z" transform="translate(-3022.794 -355.78)" fill="#8d1914"/><path d="M3364.885,369.829a18.489,18.489,0,0,1-6.464-1.277l.59-2.434a19.5,19.5,0,0,0,5.922,1.057c2.312,0,3.469-.713,3.469-1.818,0-.985-1.279-1.574-4.669-3.123-3.224-1.449-4.8-2.656-4.8-5.016,0-2.95,1.992-4.281,6.443-4.281a24.946,24.946,0,0,1,5.827.813l-.466,2.532a29.065,29.065,0,0,0-5.311-.64c-2.532,0-3.343.419-3.343,1.425,0,1.058.811,1.477,4.327,3.1,3.541,1.627,5.136,2.413,5.136,4.945,0,3.049-2.776,4.72-6.662,4.72" transform="translate(-3185.632 -352.937)" fill="#8d1914"/><path d="M3558.058,355.587c-.861,1.868-2.187,4.6-2.187,4.6h-1.479l1.378-3.59a1.825,1.825,0,0,1-1.3-1.769,1.871,1.871,0,0,1,3.741,0,1.7,1.7,0,0,1-.15.763" transform="translate(-3365.769 -352.979)" fill="#8d1914"/><path d="M1227.215,642.725a8.206,8.206,0,0,0-2.084-.25c-2.228,0-3.544,1.376-3.544,3.2s1.316,3.214,3.544,3.214a7.353,7.353,0,0,0,2.084-.311l.36,1.434a7.4,7.4,0,0,1-2.64.444c-3.015,0-5.158-2-5.158-4.782s2.1-4.765,5.158-4.765a8.694,8.694,0,0,1,2.669.372Z" transform="translate(-1219.777 -617.64)" fill="#180000"/><path d="M1354.947,652a3.849,3.849,0,0,1-4.044-3.878v-5.533h1.776v5.547a2.266,2.266,0,1,0,4.531,0v-5.547h1.783v5.533a3.86,3.86,0,0,1-4.047,3.878" transform="translate(-1340.309 -619.19)" fill="#180000"/><path d="M1492.155,651.851a.892.892,0,0,1-.875-.893v-8.366h1.78v7.715h4.892v1.544Z" transform="translate(-1469.344 -619.19)" fill="#180000"/><path d="M1582.815,644.165v7.7h-1.78v-7.7h-3.07v-1.557h7.921v1.557Z" transform="translate(-1549.025 -619.205)" fill="#180000"/><path d="M1706.544,652a3.853,3.853,0,0,1-4.048-3.878v-5.533h1.779v5.547a2.268,2.268,0,1,0,4.535,0v-5.547h1.779v5.533a3.86,3.86,0,0,1-4.045,3.878" transform="translate(-1663.495 -619.19)" fill="#180000"/><path d="M1849.271,651.851l-2.043-3.488h-2.559v3.488h-1.777v-8.366a.9.9,0,0,1,.894-.892h4.109a2.872,2.872,0,0,1,2.99,2.893,2.805,2.805,0,0,1-1.792,2.626l2.212,3.739Zm-1.708-7.73h-2.894v2.712h2.894a1.388,1.388,0,0,0,1.513-1.376,1.364,1.364,0,0,0-1.513-1.336" transform="translate(-1792.547 -619.19)" fill="#180000"/><path d="M1978.431,650.76l-.807-2.072h-3.585l-.806,2.072h-1.82l3.684-8.855a.8.8,0,0,1,.733-.5.813.813,0,0,1,.753.5l3.669,8.855Zm-2.6-6.74-1.261,3.266h2.54Z" transform="translate(-1910.686 -618.099)" fill="#180000"/><path d="M2109.937,651.851a.891.891,0,0,1-.872-.893v-8.366h1.776v7.715h4.893v1.544Z" transform="translate(-2037.216 -619.19)" fill="#180000"/><path d="M2268.559,642.725a8.23,8.23,0,0,0-2.087-.25c-2.224,0-3.544,1.376-3.544,3.2s1.32,3.214,3.544,3.214a7.374,7.374,0,0,0,2.087-.311l.361,1.434a7.439,7.439,0,0,1-2.642.444c-3.018,0-5.157-2-5.157-4.782s2.1-4.765,5.157-4.765a8.657,8.657,0,0,1,2.666.372Z" transform="translate(-2176.986 -617.64)" fill="#180000"/><path d="M2390.071,650.44a4.775,4.775,0,1,1,4.741-4.769,4.634,4.634,0,0,1-4.741,4.769m0-7.966a3.2,3.2,0,1,0,2.976,3.2,2.933,2.933,0,0,0-2.976-3.2" transform="translate(-2291.164 -617.625)" fill="#180000"/><path d="M2538.339,652a3.853,3.853,0,0,1-4.045-3.878v-5.533h1.777v5.547a2.269,2.269,0,1,0,4.538,0v-5.547h1.779v5.533a3.861,3.861,0,0,1-4.048,3.878" transform="translate(-2428.089 -619.19)" fill="#180000"/><path d="M2681.93,650.83a.838.838,0,0,1-.79-.29l-4.671-5.951v6.172h-1.781v-8.466a.9.9,0,0,1,.89-.889.785.785,0,0,1,.679.308l4.675,5.932V641.5h1.778v8.454a.876.876,0,0,1-.78.874" transform="translate(-2557.14 -618.099)" fill="#180000"/><path d="M2814.765,642.725a8.187,8.187,0,0,0-2.083-.25c-2.228,0-3.543,1.376-3.543,3.2s1.316,3.214,3.543,3.214a7.314,7.314,0,0,0,2.083-.311l.361,1.434a7.4,7.4,0,0,1-2.641.444c-3.015,0-5.158-2-5.158-4.782s2.1-4.765,5.158-4.765a8.684,8.684,0,0,1,2.67.372Z" transform="translate(-2679.062 -617.64)" fill="#180000"/><rect width="1.776" height="9.257" transform="translate(139.069 23.404)" fill="#180000"/><path d="M3006.74,651.851a.893.893,0,0,1-.877-.893v-8.366h1.779v7.715h4.9v1.544Z" transform="translate(-2861.558 -619.19)" fill="#180000"/></g><g transform="translate(0)"><rect width="78.81" height="73.927" transform="translate(0.003)" fill="#fff"/><path d="M149.38,0h2.188c3.487,4.63,7.86,9.743,12.677,15.776,4.553,5.7,9.861,14.7,19.679,13.145C194.087,27.312,203.359,11.683,195.291,0h1.749c11.019,15.029-8.282,37.934-23.175,28.485C164.183,22.34,157.2,7.608,149.38,0" transform="translate(-137.301)" fill="#1a1818" fill-rule="evenodd"/><path d="M203.513,0H243.3c11,14.289-7.711,35.085-20.546,23.664C215.709,17.4,209.589,6.659,203.513,0" transform="translate(-187.06)" fill="#1a1818" fill-rule="evenodd"/><path d="M464.2,0h15.565l.014,25.822c-3.474,14.056-11.937,26.908-26.072,26.325-9.651-.4-13.935-7.982-17.487-16.652,5.637,10.162,18.44,14.547,27.106,6.571,10.111-9.3,6.555-31,.874-42.066" transform="translate(-400.966)" fill="#1a1818" fill-rule="evenodd"/><path d="M-.12,20.937A267.173,267.173,0,0,1,22.888,43.345c7.855,8.582,16.178,17.94,16.178,30.238,0,11.362-6.38,17.29-16.46,19.589H-.12l0-18.891c4.609,2.138,17.612,7.688,19.512,1.93,1.522-4.615-6-9.026-9.183-11.395C6.272,61.893,3.264,59.6-.113,57.423l-.007-5.5C8.246,58.159,17.748,63.246,20.7,74.9c1.272-7.675-4.69-12.3-8.746-16.208A155.657,155.657,0,0,0-.116,47.98Z" transform="translate(0.123 -19.245)" fill="#8d1914" fill-rule="evenodd"/><path d="M427.724,453.1c-2.416,9.031-7.488,15.4-17.048,17.265H379.59c8.689-1.728,7.7-14.308,16.379-17.835,8.021-3.258,16.008-1.6,22.3-6.575,4.859-3.838,6.945-8.916,9.455-14.67" transform="translate(-348.911 -396.435)" fill="#8d1914" fill-rule="evenodd"/><path d="M853.483,810.9H842.771c5.2-1.413,8.834-4.4,10.712-9.149" transform="translate(-774.67 -736.973)" fill="#1a1818" fill-rule="evenodd"/><line y2="27.043" transform="translate(0.003 1.692)" fill="#8d1914"/></g></g></g></svg>