<svg xmlns="http://www.w3.org/2000/svg" viewBox="0 0 220 60" width="220" height="60"><path fill="#fff" d="M0 0h220v60H0z"></path><path d="M0 60V0h220v60H0zm13-38v2h7v14h2V24h7v-2H13zm18 0l7 10.4V38h2v-5.6L47 22h-2.4L39 30.5 33.4 22H31zm21 16h2v-6h7.8c3.1 0 5.2-2.1 5.2-5s-2.1-5-5.2-5H52v16zm2-8v-6h7.8c2 0 3.2 1.2 3.2 3 0 1.7-1.2 3-3.2 3H54zm17 0c0 4.8 3.7 8.5 8.5 8.5S88 34.9 88 30s-3.6-8.5-8.5-8.5c-4.8 0-8.5 3.7-8.5 8.5zm2 0c0-3.7 2.8-6.5 6.5-6.5S86 26.3 86 30s-2.8 6.5-6.5 6.5S73 33.7 73 30zm17-6h7v14h2V24h7v-2H90v2zm20 14h2v-7h10v7h2V22h-2v7h-10v-7h-2v16zm21 0h13v-2h-11v-5h10v-2h-10v-5h11v-2h-13v16zm18-8c0 4.8 3.7 8.5 8.5 8.5 2 0 3.8-.6 5.2-1.7l4.2 4.2 1.4-1.4-4.2-4.1c1.2-1.4 1.8-3.3 1.8-5.4 0-4.8-3.6-8.5-8.5-8.5-4.7-.1-8.4 3.6-8.4 8.4zm2 0c0-3.7 2.8-6.5 6.5-6.5s6.5 2.8 6.5 6.5-2.8 6.5-6.5 6.5-6.5-2.8-6.5-6.5zm21 .8c0 4.6 3 7.7 7.5 7.7s7.5-3 7.5-7.7V22h-2v8.8c0 3.4-2.2 5.7-5.5 5.7s-5.5-2.2-5.5-5.7V22h-2v8.8zm22 7.2h13v-2h-11v-5h10v-2h-10v-5h11v-2h-13v16z" fill="#F60"></path></svg>