<?xml version="1.0" encoding="UTF-8" standalone="no"?>
<svg
   xmlns:dc="http://purl.org/dc/elements/1.1/"
   xmlns:cc="http://creativecommons.org/ns#"
   xmlns:rdf="http://www.w3.org/1999/02/22-rdf-syntax-ns#"
   xmlns:svg="http://www.w3.org/2000/svg"
   xmlns="http://www.w3.org/2000/svg"
   xmlns:sodipodi="http://sodipodi.sourceforge.net/DTD/sodipodi-0.dtd"
   xmlns:inkscape="http://www.inkscape.org/namespaces/inkscape"
   height="512"
   viewBox="0 0 371.5 512"
   width="371.5"
   version="1.1"
   id="svg10"
   sodipodi:docname="slides.svg"
   inkscape:version="1.0.2-2 (e86c870879, 2021-01-15)">
  <metadata
     id="metadata16">
    <rdf:RDF>
      <cc:Work
         rdf:about="">
        <dc:format>image/svg+xml</dc:format>
        <dc:type
           rdf:resource="http://purl.org/dc/dcmitype/StillImage" />
        <dc:title></dc:title>
      </cc:Work>
    </rdf:RDF>
  </metadata>
  <defs
     id="defs14" />
  <sodipodi:namedview
     pagecolor="#ffffff"
     bordercolor="#666666"
     borderopacity="1"
     objecttolerance="10"
     gridtolerance="10"
     guidetolerance="10"
     inkscape:pageopacity="0"
     inkscape:pageshadow="2"
     inkscape:window-width="1920"
     inkscape:window-height="1017"
     id="namedview12"
     showgrid="false"
     fit-margin-top="0"
     fit-margin-left="0"
     fit-margin-right="0"
     fit-margin-bottom="0"
     inkscape:zoom="1.6601562"
     inkscape:cx="186.1"
     inkscape:cy="231.90588"
     inkscape:window-x="-8"
     inkscape:window-y="6"
     inkscape:window-maximized="1"
     inkscape:current-layer="svg10" />
  <path
     d="M 370.9,140.2 V 479 c 0,18.2 -14.8,33 -33,33 H 33 C 14.8,512 0,497.2 0,479 V 33 C 0,14.8 14.8,0 33,0 h 197.6 z"
     fill="#f5b912"
     id="path2" />
  <path
     d="M 253.7,233.5 H 119.2 c -12.5,0 -22.6,10.1 -22.6,22.6 v 134.5 c 0,12.5 10.1,22.6 22.6,22.6 h 134.5 c 12.5,0 22.6,-10.1 22.6,-22.6 V 256 c 0,-12.4 -10.1,-22.5 -22.6,-22.5 z M 253,373 H 120 v -90.5 h 133 z"
     fill="#ffffff"
     id="path4" />
  <path
     d="m 249.7,134.4 121.1,98.1 v -92.2 l -68.7,-39.8 z"
     opacity="0.19"
     id="path6" />
  <path
     d="M 371.5,140.2 H 264.3 c -18.2,0 -33,-14.8 -33,-33 V 0 Z"
     fill="#fadc87"
     id="path8" />
</svg>
